<?xml version="1.0" encoding="UTF-8"?>
<!DOCTYPE svg PUBLIC "-//W3C//DTD SVG 1.1//EN" "http://www.w3.org/Graphics/SVG/1.1/DTD/svg11.dtd">
<!-- Creator: CorelDRAW 2018 (64-Bit) -->
<svg xmlns="http://www.w3.org/2000/svg" xml:space="preserve" width="1170px" height="82px" version="1.1" style="shape-rendering:geometricPrecision; text-rendering:geometricPrecision; image-rendering:optimizeQuality; fill-rule:evenodd; clip-rule:evenodd"
viewBox="0 0 1170 82"
 xmlns:xlink="http://www.w3.org/1999/xlink">
 <defs>
  <style type="text/css">
   <![CDATA[
    .fil0 {fill:#66C3D0;fill-rule:nonzero}
   ]]>
  </style>
 </defs>
 <g id="Слой_x0020_1">
  <metadata id="CorelCorpID_0Corel-Layer"/>
  <polygon class="fil0" points="1088.27,0.53 1115.89,0.53 1118.96,5.2 1085.36,5.2 "/>
  <polygon class="fil0" points="1079.74,14.38 1080.61,13.07 1080.52,12.96 1083,8.99 1121.58,8.99 1125.23,14.38 "/>
  <polygon class="fil0" points="1101.32,26.33 1072.01,26.33 1072.3,25.75 1132.81,25.75 1137.47,32.75 1105.54,32.75 "/>
  <polygon class="fil0" points="1073.76,23.56 1077.25,18.21 1077.25,18.21 1077.27,18.18 1077.84,17.3 1127.12,17.3 1131.35,23.56 "/>
  <polygon class="fil0" points="1061.07,41.93 1064.14,37.41 1108.6,37.41 1106.42,34.2 1138.49,34.2 1143.6,41.93 "/>
  <polygon class="fil0" points="1144.18,42.66 1169.99,81 1137.91,81 1122.75,59.13 1082.22,59.13 1066.76,81 1034.83,81 1060.64,42.66 "/>
  <polygon class="fil0" points="908.86,23.56 908.86,19.63 908.51,19.22 908.51,17.3 937.29,17.3 937.29,23.56 "/>
  <polygon class="fil0" points="979.14,5.2 984.53,0.53 1023.61,0.53 1018.21,5.2 "/>
  <polygon class="fil0" points="908.51,8.99 937.29,8.99 937.29,14.38 908.51,14.38 "/>
  <polygon class="fil0" points="908.51,0.53 937.29,0.53 937.29,5.2 908.51,5.2 "/>
  <polygon class="fil0" points="968.49,14.38 974.76,8.99 1013.84,8.99 1007.57,14.38 "/>
  <polygon class="fil0" points="957.85,23.56 965.14,17.3 1004.21,17.3 996.92,23.56 "/>
  <polygon class="fil0" points="937.29,28.37 952.31,28.37 955.37,25.75 994.3,25.75 986.28,32.75 908.86,32.75 908.86,25.75 937.29,25.75 "/>
  <polygon class="fil0" points="908.86,41.93 908.86,34.2 984.53,34.2 978.55,39.45 981.32,41.93 "/>
  <polygon class="fil0" points="982.2,42.66 1026.67,81 987.59,81 951.87,50.24 937.29,50.24 937.29,81 908.86,81 908.86,42.66 "/>
  <polygon class="fil0" points="850.4,5.2 850.4,0.53 878.83,0.53 878.83,5.2 "/>
  <polygon class="fil0" points="850.4,14.38 850.4,8.99 878.83,8.99 878.83,14.38 "/>
  <polygon class="fil0" points="850.4,23.56 850.4,17.3 878.83,17.3 878.83,23.56 "/>
  <polygon class="fil0" points="762.99,17.3 791.35,17.3 791.35,23.56 762.99,23.56 "/>
  <polygon class="fil0" points="762.99,8.99 791.35,8.99 791.35,14.38 762.99,14.38 "/>
  <polygon class="fil0" points="762.99,0.53 791.35,0.53 791.35,5.2 762.99,5.2 "/>
  <polygon class="fil0" points="850.4,28.37 850.4,25.75 878.83,25.75 878.83,32.75 762.99,32.75 762.99,25.75 791.35,25.75 791.35,28.37 "/>
  <polygon class="fil0" points="762.99,34.2 878.83,34.2 878.83,41.93 762.99,41.93 "/>
  <polygon class="fil0" points="878.83,81 850.4,81 850.4,50.24 791.35,50.24 791.35,81 762.99,81 762.99,42.66 878.83,42.66 "/>
  <polygon class="fil0" points="621.35,32.75 621.35,25.75 649.93,25.75 649.93,32.75 "/>
  <polygon class="fil0" points="621.35,41.93 621.35,34.2 649.93,34.2 649.93,41.93 "/>
  <polygon class="fil0" points="649.93,19.63 649.93,23.56 621.35,23.56 621.35,17.3 732.88,17.3 732.88,19.63 "/>
  <polygon class="fil0" points="621.35,5.2 621.35,0.53 732.88,0.53 732.88,5.2 "/>
  <polygon class="fil0" points="621.35,14.38 621.35,8.99 732.88,8.99 732.88,14.38 "/>
  <path class="fil0" d="M732.88 59.28l0 21.72 -88.2 0c-7.29,0 -13,-1.63 -17.13,-4.89 -4.13,-3.25 -6.2,-7.65 -6.2,-13.19l0 -20.26 28.58 0 0 16.62 82.95 0z"/>
  <polygon class="fil0" points="483.86,32.75 483.86,31.44 512.44,31.44 512.44,32.75 "/>
  <polygon class="fil0" points="578.78,32.75 578.78,25.75 607.35,25.75 607.35,32.75 "/>
  <polygon class="fil0" points="578.78,41.93 578.78,34.2 607.35,34.2 607.35,41.93 "/>
  <polygon class="fil0" points="483.86,41.93 483.86,34.2 512.44,34.2 512.44,41.93 "/>
  <polygon class="fil0" points="578.78,23.56 578.78,19.63 483.86,19.63 483.86,17.3 607.35,17.3 607.35,23.56 "/>
  <path class="fil0" d="M599.33 0.53c2.53,1.46 4.33,3.02 5.4,4.67l-118.39 0c1.26,-1.75 3.06,-3.31 5.4,-4.67l107.59 0z"/>
  <path class="fil0" d="M606.48 8.99c0.58,1.75 0.87,3.54 0.87,5.39l-123.49 0c0,-1.65 0.25,-3.45 0.73,-5.39l121.89 0z"/>
  <path class="fil0" d="M607.35 62.92c0,5.54 -2.06,9.94 -6.19,13.19 -4.13,3.26 -9.84,4.89 -17.13,4.89l-76.84 0c-7.29,0 -13,-1.63 -17.13,-4.89 -4.13,-3.25 -6.2,-7.65 -6.2,-13.19l0 -20.26 28.58 0 0 16.62 66.34 0 0 -16.62 28.57 0 0 20.26z"/>
  <polygon class="fil0" points="438.96,5.2 444.35,0.53 469.87,0.53 469.87,5.2 "/>
  <polygon class="fil0" points="338.53,0.53 364.02,0.53 369.41,5.2 338.53,5.2 "/>
  <polygon class="fil0" points="428.46,14.38 434.58,8.99 469.87,8.99 469.87,14.38 "/>
  <polygon class="fil0" points="338.53,8.99 373.79,8.99 380.06,14.38 338.53,14.38 "/>
  <polygon class="fil0" points="417.82,23.56 425.11,17.3 469.87,17.3 469.87,23.56 "/>
  <polygon class="fil0" points="338.65,23.56 338.65,19.34 338.53,19.2 338.53,17.3 383.41,17.3 390.55,23.56 "/>
  <polygon class="fil0" points="407.17,32.75 415.34,25.75 469.87,25.75 469.87,32.75 "/>
  <polygon class="fil0" points="338.65,32.75 338.65,25.75 393.18,25.75 401.2,32.75 "/>
  <polygon class="fil0" points="404.26,70.21 372.47,42.66 435.89,42.66 "/>
  <polygon class="fil0" points="402.95,34.2 404.26,35.37 405.57,34.2 469.87,34.2 469.87,41.93 441.29,41.93 441.29,37.99 436.77,41.93 371.6,41.93 367.08,37.99 367.08,41.93 338.65,41.93 338.65,34.2 "/>
  <polygon class="fil0" points="367.08,81 338.65,81 338.65,42.66 367.08,42.66 "/>
  <polygon class="fil0" points="469.87,81 441.29,81 441.29,42.66 469.87,42.66 "/>
  <polygon class="fil0" points="280.81,17.3 308.91,17.3 308.91,23.56 280.81,23.56 "/>
  <polygon class="fil0" points="280.81,8.99 308.91,8.99 308.91,14.38 280.81,14.38 "/>
  <polygon class="fil0" points="280.81,25.75 308.91,25.75 308.91,32.75 280.81,32.75 "/>
  <polygon class="fil0" points="280.81,0.53 308.91,0.53 308.91,5.2 280.81,5.2 "/>
  <polygon class="fil0" points="280.81,34.2 308.91,34.2 308.91,41.93 280.81,41.93 "/>
  <polygon class="fil0" points="308.91,81 280.81,81 280.81,42.66 308.91,42.66 "/>
  <polygon class="fil0" points="140.95,32.75 140.95,32.16 227.55,32.16 227.55,25.75 256.13,25.75 256.13,32.75 "/>
  <polygon class="fil0" points="227.55,23.56 227.55,19.63 140.95,19.63 140.66,19.31 140.66,17.3 256.13,17.3 256.13,23.56 "/>
  <path class="fil0" d="M248.69 0.53c2.33,1.46 4.04,3.02 5.1,4.67l-113.13 0 0 -4.67 108.03 0z"/>
  <path class="fil0" d="M255.4 8.99c0.48,1.94 0.73,3.74 0.73,5.39l-115.47 0 0 -5.39 114.74 0z"/>
  <path class="fil0" d="M256.13 35.81c0,2.23 -0.39,4.27 -1.17,6.12l-114.01 0 0 -7.73 115.18 0 0 1.61z"/>
  <path class="fil0" d="M254.67 42.66c-1.56,3.4 -4.25,6 -8.09,7.8 -3.84,1.8 -8.58,2.74 -14.22,2.84l27.85 27.7 -35.28 0 -28 -27.12 -27.55 0 0 27.12 -28.43 0 0 -38.34 113.72 0z"/>
  <polygon class="fil0" points="0.11,32.16 87.44,32.16 87.44,25.75 116.02,25.75 116.02,32.75 0.11,32.75 "/>
  <polygon class="fil0" points="87.44,23.56 87.44,19.63 0.11,19.63 -0.02,19.49 -0.02,17.3 116.02,17.3 116.02,23.56 "/>
  <path class="fil0" d="M109.16 0.53c1.07,0.68 1.99,1.39 2.77,2.12 0.78,0.73 1.41,1.58 1.9,2.55l-113.85 0 0 -4.67 109.18 0z"/>
  <path class="fil0" d="M115.29 8.99c0.48,1.94 0.73,3.74 0.73,5.39l-116.04 0 0 -5.39 115.31 0z"/>
  <path class="fil0" d="M116.02 35.81c0,2.04 -0.39,4.08 -1.17,6.12l-114.74 0 0 -7.73 115.91 0 0 1.61z"/>
  <path class="fil0" d="M114.56 42.66c-1.56,3.5 -3.94,6.24 -7.15,8.24 -3.2,1.99 -6.51,2.98 -9.91,2.98l-68.96 0 0 27.12 -28.43 0 0 -38.34 114.45 0z"/>
  <polygon class="fil0" points="115.89,32.16 28.56,32.16 28.56,25.75 -0.02,25.75 -0.02,32.75 115.89,32.75 "/>
  <polygon class="fil0" points="28.56,23.56 28.56,19.63 115.89,19.63 116.02,19.49 116.02,17.3 -0.02,17.3 -0.02,23.56 "/>
  <polygon class="fil0" points="255.84,32.75 255.84,32.16 169.24,32.16 169.24,25.75 140.66,25.75 140.66,32.75 "/>
  <polygon class="fil0" points="169.24,23.56 169.24,19.63 255.84,19.63 256.13,19.31 256.13,17.3 140.66,17.3 140.66,23.56 "/>
  <path class="fil0" d="M512.44 32.75l0 -7 -28.58 0 0 7 28.58 0zm0 -9.19l0 -3.93 94.91 0 0 -2.33 -123.49 0 0 6.26 28.58 0z"/>
  <path class="fil0" d="M1103.36 26.33l29.3 0 -0.29 -0.58 -60.51 0 -4.66 7 31.93 0 4.23 -6.42zm40.24 15.6l-3.07 -4.52 -44.46 0 2.18 -3.21 -32.07 0 -5.11 7.73 82.53 0z"/>
 </g>
</svg>
